<svg width="256" height="250" viewBox="0 0 256 250" fill="none" xmlns="http://www.w3.org/2000/svg">
<path d="M122.969 0.212151C107.647 2.2102 95.0312 15.0159 91.4081 32.2263C90.3604 37.2668 90.3604 47.9382 91.4081 54.0232C93.678 67.0559 99.1782 79.4529 106.25 87.3088C112.623 94.3928 119.651 97.844 127.77 97.844C139.12 97.844 148.636 91.1687 156.275 77.8181C163.915 64.5129 167.319 44.5779 164.177 31.3181C160.641 16.2873 150.164 4.66235 137.025 1.16576C133.052 0.12133 126.985 -0.287361 122.969 0.212151Z" fill="#292828"/>
<path d="M156.712 85.0837C155.883 86.0373 153.918 88.2624 152.39 90.0788C142.132 102.203 127.727 105.655 114.413 99.2063C109.087 96.5725 103.325 91.4411 99.5274 85.9011C97.694 83.2219 97.1265 83.1765 90.0548 85.3562C50.0256 97.5261 13.5759 133.763 2.31357 172.544C1.04766 176.948 0 183.033 0 185.894C0 189.028 1.13496 194.023 2.48818 196.702C3.97236 199.79 8.03203 203.831 11.1313 205.284C16.4569 207.827 22.3064 207.737 32.9139 204.967C55.2639 199.109 74.9947 188.664 83.2014 178.311C86.7809 173.77 87.9158 171.045 88.0904 166.64C88.2651 162.326 87.6539 160.465 85.0784 157.558C82.3283 154.47 79.7092 153.471 74.209 153.517C70.0184 153.517 67.05 154.062 61.2879 155.787L60.3712 156.06L60.022 136.76C59.8474 126.18 59.8474 117.052 60.022 116.508C60.6768 114.328 60.9823 114.373 81.4989 120.367C104.155 126.997 117.643 131.266 123.623 133.673L127.858 135.444L132.834 133.446C141.957 129.858 188.884 115.645 193.249 115.191C194.733 115.054 195.126 115.191 195.519 115.917C195.868 116.598 195.912 122.729 195.693 136.579L195.432 156.332L193.031 155.469C187.05 153.335 180.022 152.699 175.875 153.971C172.732 154.925 168.935 158.83 168.105 162.009C164.788 174.224 177.927 187.892 202.896 198.155C218.611 204.649 233.016 208.1 239.52 206.965C249.997 205.057 256.589 195.294 255.628 183.124C254.799 172.68 248.731 156.968 240.568 144.072C231.401 129.54 218.131 115.327 204.249 105.11C190.324 94.8015 172.689 86.3098 159.986 83.7668C158.371 83.4035 158.152 83.4943 156.712 85.0837ZM77.3956 107.653C87.5666 110.332 96.9955 113.965 105.682 118.551C111.532 121.639 119.127 126.679 122.008 129.359C123.754 130.993 123.754 130.948 118.298 128.314C108.083 123.364 93.5033 118.188 77.6139 113.965C73.074 112.738 69.4072 111.558 69.4072 111.285C69.4509 110.468 71.9827 106.472 72.5066 106.472C72.7685 106.472 74.9511 107.017 77.3956 107.653ZM185.217 109.015C185.915 110.423 186.352 111.649 186.221 111.785C186.134 111.921 183.602 112.602 180.633 113.329C164.046 117.461 146.497 123.682 135.104 129.449L132.048 131.039L133.794 129.359C136.676 126.634 144.315 121.593 150.688 118.233C158.152 114.328 164.875 111.558 173.474 109.015C184.388 105.7 183.689 105.7 185.217 109.015Z" fill="#292828"/>
<path d="M92.8485 136.579C92.2374 137.215 92.1064 137.805 92.281 138.804C92.412 139.576 92.5429 144.389 92.5429 149.475V158.784L94.2454 157.286L95.9478 155.742L95.9915 147.614L96.0351 139.531L99.0035 139.803C109.524 140.893 119.345 144.616 124.06 149.339C126.286 151.564 126.592 152.563 126.592 158.058C126.592 160.147 126.766 161.872 126.941 161.872C127.159 161.872 127.945 161.055 128.687 160.101C129.953 158.467 130.084 158.012 130.084 155.061V151.837L132.398 149.521C137.068 144.844 147.414 140.847 156.319 140.212L160.641 139.939L160.684 144.662L160.728 149.385L162.43 150.928L164.133 152.472L164.045 144.344L163.915 136.216L161.514 136.079C158.109 135.852 151.168 136.76 146.279 138.077C141.172 139.394 134.275 142.891 130.739 145.888L128.076 148.113L125.719 145.843C119.957 140.484 108.476 136.533 96.5153 135.852C94.2017 135.716 93.5469 135.852 92.8485 136.579Z" fill="#786E6E"/>
<path d="M85.1657 146.615C84.8601 146.978 84.6855 148.295 84.7728 149.612C84.9038 151.791 85.0784 152.155 86.7808 153.608L88.6142 155.197V152.382C88.6142 150.202 88.7452 149.612 89.269 149.612C89.7492 149.612 89.9238 149.112 89.9238 147.795V145.979H87.7849C86.4753 145.979 85.4713 146.206 85.1657 146.615Z" fill="#544A4A"/>
<path d="M166.752 147.795C166.752 149.112 166.927 149.612 167.407 149.612C167.887 149.612 168.062 150.157 168.062 151.7C168.062 152.836 168.192 153.699 168.411 153.608C168.585 153.517 169.458 152.972 170.331 152.336C171.816 151.292 171.99 151.019 171.99 149.112C171.99 146.524 171.466 145.979 168.847 145.979H166.752V147.795Z" fill="#544A4A"/>
<path d="M144.62 149.339C140.561 150.701 135.366 155.424 129.909 162.644C128.731 164.234 127.639 165.505 127.509 165.505C127.334 165.505 125.675 164.279 123.798 162.781C117.207 157.513 112.448 155.424 106.948 155.379C101.143 155.333 96.69 157.422 93.8526 161.509C92.8922 162.871 92.543 163.87 92.543 165.278C92.543 166.323 92.1501 168.729 91.6699 170.682C90.8842 173.951 90.8842 174.315 91.4953 176.313C93.0232 181.035 95.9915 184.487 100.269 186.485C103.238 187.892 109.218 187.892 112.623 186.485C116.595 184.85 121.092 180.581 126.81 173.089L128.163 171.318L132.703 174.905C140.561 180.99 146.759 183.26 152.783 182.261C157.891 181.399 161.295 179.128 163.565 175.177C164.657 173.225 164.657 173.089 164.089 170.591C163.347 167.412 163.347 164.143 164.089 161.327C164.613 159.375 164.569 159.011 163.74 157.24C162.518 154.516 159.768 151.655 157.018 150.202C155.097 149.203 154.093 148.976 150.601 148.84C147.938 148.749 145.799 148.93 144.62 149.339ZM154.136 153.017C157.018 154.062 159.113 156.06 160.684 159.375C161.994 162.145 162.038 162.508 161.863 166.504C161.732 169.637 161.426 171.227 160.728 172.635C158.196 177.675 151.779 179.9 145.319 177.948C142.83 177.176 138.814 175.041 138.814 174.451C138.814 174.269 140.43 174.133 142.438 174.133C148.069 174.133 151.605 171.908 154.093 166.913C154.966 165.051 156.144 158.875 155.708 158.421C155.577 158.285 154.617 158.467 153.569 158.875C152.521 159.284 150.164 159.92 148.287 160.283C146.41 160.646 144.053 161.418 143.049 161.963C140.866 163.235 139.251 165.959 139.251 168.411C139.251 170.137 139.251 170.137 140.255 169.41C142.787 167.503 148.855 164.234 148.855 164.779C148.855 164.869 147.545 165.959 145.93 167.231C144.271 168.457 141.914 170.319 140.604 171.363C139.338 172.407 137.898 173.225 137.418 173.225C136.588 173.225 134.275 171.681 131.655 169.41L130.39 168.321L133.227 164.506C137.374 159.011 142.132 154.47 144.969 153.335C147.807 152.2 151.474 152.064 154.136 153.017ZM111.357 159.874C114.195 160.737 118.865 163.507 122.576 166.504L125.282 168.775L123.885 170.864C123.1 171.999 120.786 174.723 118.778 176.948C116.115 179.9 114.413 181.308 112.361 182.352C109.786 183.669 109.349 183.76 105.944 183.578C102.976 183.442 101.885 183.17 100.269 182.171C96.559 179.9 94.7256 176.222 94.7256 171C94.7256 162.19 102.277 157.104 111.357 159.874Z" fill="#63A26C"/>
<path d="M127.508 176.585C126.635 178.038 126.592 178.765 126.592 190.889C126.592 197.883 126.461 203.65 126.33 203.65C126.199 203.65 125.326 203.059 124.453 202.378C118.472 197.519 110.877 194.431 100.837 192.797L96.2534 192.025L96.1225 189.754C95.9915 187.756 95.7732 187.211 94.2891 185.713L92.543 183.942V189.436C92.543 193.251 92.7176 195.067 93.1104 195.34C93.3724 195.612 95.2058 195.93 97.1265 196.112C103.063 196.656 113.627 199.517 114.98 200.925C115.286 201.243 110.833 201.379 102.016 201.379H88.6143V189.663V177.993L86.6499 180.263L84.7292 182.534L84.6855 193.251C84.6855 200.97 84.8165 204.058 85.2094 204.467C85.6022 204.876 90.0548 205.012 102.67 205.012H119.564L120.655 206.647C122.314 209.19 124.671 210.597 127.508 210.824C131.525 211.142 134.886 209.417 136.457 206.329L137.112 205.012H154.005C166.621 205.012 171.074 204.876 171.466 204.467C171.859 204.058 171.99 201.016 171.99 193.659V183.397L170.026 181.399L168.062 179.401V190.39V201.379L154.66 201.334L141.215 201.288L143.398 200.244C146.977 198.473 152.958 196.883 158.152 196.293C160.859 196.021 163.303 195.567 163.609 195.34C164.002 195.022 164.133 192.797 164.133 186.984V179.037L162.43 180.536L160.728 182.08L160.597 187.075L160.422 192.025L156.45 192.615C147.196 193.886 138.465 197.338 132.485 202.06C131.394 202.923 130.433 203.65 130.302 203.65C130.171 203.65 130.084 197.474 130.084 189.89C130.084 176.812 130.04 176.131 129.255 175.632C128.513 175.132 128.294 175.268 127.508 176.585Z" fill="#786E6E"/>
<path d="M125.937 218.135C121.746 219.225 119.607 222.586 119.607 228.262C119.607 230.442 119.477 230.896 118.734 231.123C116.77 231.759 116.465 233.03 116.639 240.841C116.77 247.107 116.857 248.242 117.556 248.924C118.254 249.65 119.302 249.741 128.163 249.741C137.418 249.741 138.029 249.696 138.64 248.878C139.12 248.197 139.251 246.199 139.251 240.341C139.251 233.302 139.164 232.621 138.378 231.804C137.898 231.304 137.199 230.896 136.85 230.896C136.326 230.896 136.195 230.26 136.195 227.717C136.195 223.857 135.541 222.041 133.445 220.134C131.175 218.045 128.774 217.454 125.937 218.135ZM130.259 221.587C132.31 222.631 133.14 224.402 133.14 227.899V230.896H127.858H122.576L122.75 227.717C123.056 222.177 126.199 219.589 130.259 221.587ZM129.298 237.571C130.171 238.388 130.346 239.751 129.604 240.25C129.298 240.432 129.211 241.249 129.386 242.43L129.691 244.337L127.901 244.156L126.112 243.974L126.374 242.248C126.548 241.204 126.461 240.386 126.199 240.205C125.501 239.796 125.632 238.57 126.461 237.616C127.334 236.617 128.251 236.572 129.298 237.571Z" fill="#A78517"/>
</svg>
