<svg width="310" height="99" viewBox="0 0 310 99" fill="none" xmlns="http://www.w3.org/2000/svg">
<g clip-path="url(#clip0_310_634)">
<path d="M50.5162 3.55875C44.0526 5.93972 33.4473 9.74347 27.9251 11.6599C21.085 14.0408 16.8492 15.6959 15.6569 16.4509C14.3077 17.2639 13.0526 18.7157 12.7388 19.79C12.6133 20.3127 12.1427 42.148 12.2368 44.6741C12.2368 44.8483 11.7034 45.1677 11.0759 45.342C8.62851 46.0679 6.21252 47.4906 4.42406 49.2909C2.32183 51.3525 1.19228 53.3269 0.407862 56.2015C-0.909951 61.1958 1.72568 67.1772 6.49491 69.9647C7.74997 70.6616 9.85219 71.4456 11.8603 71.9392C12.1427 72.0263 12.2368 74.233 12.2368 81.7244C12.2368 92.2065 12.3623 93.0776 13.9625 95.3134C15.6882 97.7234 20.0182 99.3494 23.4696 98.8848C25.0698 98.6816 34.0435 96.3877 44.3977 93.5422C48.0374 92.5549 51.4261 91.6258 51.9281 91.5096C53.7479 91.0741 66.0475 87.7059 67.3653 87.2703C69.1538 86.6896 71.3502 84.3957 71.8208 82.6826C72.0404 81.8696 72.166 78.1239 72.166 72.4618V63.5187L71.1619 64.4188C70.5971 64.8834 69.5931 65.6383 68.9656 66.1029L67.7732 66.8869V74.1459C67.7732 82.0728 67.6477 82.7116 65.9848 83.3214C65.1376 83.6408 60.6508 84.8894 50.7672 87.5607C48.0374 88.2866 45.4959 88.8964 45.088 88.8964C44.335 88.8964 41.7307 87.3574 41.7307 86.9219C41.7307 86.8058 42.923 86.5154 44.3977 86.2541C51.0496 85.0345 54.752 81.9857 56.7601 75.9752C57.5131 73.7975 58.0152 69.3259 57.5445 69.0646C57.3876 68.9775 56.3836 69.2969 55.2854 69.7615C54.2186 70.226 51.4888 71.01 49.2297 71.4746C44.6488 72.4328 42.6407 73.1587 41.2915 74.3202C40.3188 75.1622 39.1892 77.2819 38.5931 79.3434C38.1852 80.7372 37.9028 80.5339 37.4949 78.5885C36.836 75.1041 37.589 69.8486 39.1892 66.7707C40.8836 63.5477 40.6326 63.6348 43.9898 65.1447C48.8846 67.3515 50.9554 67.816 55.6933 67.8451C59.3643 67.8451 60.0232 67.758 62.2824 67.0321C66.8633 65.5222 70.3147 63.0831 72.7621 59.5697C78.2844 51.6719 77.0607 41.2188 69.8127 34.3953C67.7419 32.4498 66.7692 31.811 64.6356 30.8528C57.4504 27.6879 50.4848 28.2977 43.7702 32.7112C41.6052 34.1339 39.1892 36.4278 32.3492 43.5127C29.7135 46.2711 27.4858 48.5359 27.423 48.5359C27.3603 48.5359 26.6073 48.1875 25.7287 47.7229L24.1599 46.9389V36.4278V25.9167L25.3522 25.6263C25.9797 25.4521 28.082 25.0166 29.9645 24.61C31.8785 24.2035 39.001 22.5775 45.8097 20.9805C52.6184 19.4126 59.0192 17.9607 60.0232 17.7575C62.5647 17.2929 64.0081 17.5833 65.671 18.948C67.4595 20.3708 67.7732 21.5032 67.7732 26.4103V30.185L68.8714 30.94C69.4676 31.3755 70.4716 32.1885 71.0678 32.7692L72.166 33.8145V27.8621C72.166 22.6937 72.0718 21.6193 71.5384 19.9933C70.7226 17.5833 68.7773 15.4927 66.2672 14.3602C64.6983 13.6634 64.1336 13.5472 61.8117 13.5763C59.4585 13.6053 56.9483 14.128 40.9463 17.9027C21.4301 22.4904 18.9828 22.8969 18.0101 21.7064C17.006 20.4288 17.7905 19.6158 21.0536 18.4834C23.501 17.6413 28.333 15.8992 34.0435 13.8376C35.9575 13.1698 39.9737 11.7179 42.9858 10.6436C45.9979 9.54022 49.669 8.23359 51.1123 7.6819C52.587 7.15925 53.8734 6.7237 53.999 6.7237C54.1245 6.7237 54.3127 8.03033 54.4382 9.65637L54.6579 12.589L55.6619 12.3858C56.1953 12.2987 57.1052 12.1244 57.67 12.0373L58.6741 11.8631V7.27539V2.68766L57.8583 2.10693C57.3876 1.7585 56.7915 1.49717 56.5091 1.52621C56.2267 1.52621 53.5283 2.45537 50.5162 3.55875ZM18.3552 26.2942L19.6103 26.7007V35.9632V45.1968L18.3552 45.0806C17.6649 45.0516 17.006 44.9354 16.8805 44.8483C16.7237 44.7903 16.6295 40.4929 16.6295 35.2954C16.6295 30.1269 16.7237 25.8876 16.8805 25.8876C17.006 25.8876 17.6649 26.0909 18.3552 26.2942ZM60.6194 33.7274C67.3654 35.6438 72.3856 42.9319 71.7581 49.8716C70.9736 58.176 64.3532 63.9252 55.505 63.9252C52.9322 63.9252 50.2338 63.3154 47.002 61.9797C43.8643 60.7021 44.5232 60.4408 51.7712 60.1214C57.9838 59.8891 59.8664 59.4826 62.3451 57.9147C64.1649 56.7822 65.0749 55.795 66.3927 53.4721C67.2398 51.9913 67.3026 51.6428 67.3026 48.6811C67.3026 45.7775 67.2085 45.3129 66.3927 43.6579C65.2317 41.3349 62.5647 38.983 60.0232 38.0538C58.6113 37.5312 57.5759 37.386 55.3795 37.357C52.8066 37.357 52.336 37.4441 50.5162 38.2861C47.8805 39.4766 44.837 41.8866 40.9777 45.8065C39.252 47.5487 36.2085 50.5975 34.2004 52.601C32.1923 54.6045 28.584 58.176 26.168 60.586C23.7834 62.967 21.3046 65.377 20.7085 65.8706C19.4848 66.9449 17.006 67.9031 15.3745 67.9903C13.2722 68.1064 11.923 67.9903 11.923 67.6999C11.923 67.5257 12.1113 67.4095 12.3309 67.4095C13.1467 67.4095 16.4726 65.1737 19.1083 62.9089C20.5202 61.6313 24.254 58.0018 27.3917 54.7787C30.4979 51.5848 33.6356 48.3908 34.3259 47.6649C35.0475 46.9389 37.589 44.3547 39.9737 41.9157C44.4291 37.357 46.9079 35.4696 49.9828 34.163C53.1204 32.8273 56.8856 32.6821 60.6194 33.7274ZM57.5759 41.5963C59.3643 42.0028 61.5293 43.774 62.4392 45.4871C63.004 46.5905 63.0981 47.2003 63.004 48.9425C62.8785 51.6138 61.749 53.4721 59.4898 54.7497C58.0152 55.5918 57.7955 55.6498 52.7439 55.8531C47.1589 56.1144 44.6174 56.55 42.421 57.6824C41.6366 58.0889 40.9149 58.4083 40.7894 58.4083C40.3502 58.4083 37.338 56.0854 37.338 55.766C37.338 55.4175 44.8998 47.81 47.7864 45.2258C51.8026 41.6834 54.1872 40.8123 57.5759 41.5963ZM18.1356 49.1167C19.673 49.4651 22.0263 50.4233 23.3127 51.2363L24.1599 51.788L23.1872 52.9204C20.9281 55.5627 14.3077 61.6023 12.3309 62.8218C9.91495 64.3317 7.62446 65.1447 6.9028 64.7963C6.62041 64.6511 6.05564 63.9252 5.64774 63.1412C4.95746 61.9217 4.86333 61.37 4.86333 58.8438C4.86333 56.1725 4.92608 55.8241 5.77325 54.5174C8.56576 50.1329 13.2409 48.0714 18.1356 49.1167ZM35.3299 59.8891C36.0202 60.3827 36.7732 60.9054 37.0243 61.0215C37.4322 61.2538 37.4322 61.37 36.9301 62.0959C35.5182 64.0994 33.8239 67.8741 33.416 69.9066C32.4119 74.6396 33.0081 80.8824 34.7652 84.628C35.6437 86.3993 37.7773 89.3319 38.6558 89.8836C39.6285 90.5224 39.252 90.7547 35.6123 91.6548C33.8866 92.0904 31.8471 92.613 31.0627 92.8453C30.2783 93.0776 28.3957 93.5712 26.8896 93.9487L24.1599 94.6456V81.4631C24.1599 73.5943 24.2854 68.2806 24.4423 68.2806C24.5992 68.2806 26.7641 66.19 29.2115 63.6348C31.6903 61.0796 33.7925 58.989 33.918 58.989C34.0121 58.989 34.671 59.3955 35.3299 59.8891ZM19.7672 82.7988C19.7672 89.7094 19.6417 94.4133 19.4848 94.4133C18.9514 94.4133 17.3512 92.9905 16.9747 92.1775C16.7237 91.5967 16.6295 88.4608 16.6923 81.6663L16.7864 71.9682L18.0415 71.5907C18.7317 71.4165 19.3907 71.2423 19.5475 71.2133C19.673 71.1842 19.7672 76.4108 19.7672 82.7988ZM46.5 78.5885C44.1467 80.9114 42.5779 83.2924 41.6052 86.1089C41.3856 86.7477 40.9149 86.4573 40.0992 85.1797L39.5344 84.3377L41.0718 82.3051C42.7348 80.1274 44.9625 78.1239 46.751 77.2528C48.5394 76.3817 48.5081 76.585 46.5 78.5885Z" fill="#63A26C"/>
</g>
<g clip-path="url(#clip1_310_634)">
<path d="M130.436 12.7134C130.194 13.0175 130.194 20.7429 130.436 29.9281L130.798 46.5346L133.457 46.7171C135.995 46.8996 136.116 46.8387 136.116 45.318V43.7364L138.352 45.4397C140.225 46.8996 141.132 47.1429 144.274 47.1429C147.416 47.1429 148.383 46.8387 150.256 45.4397C154.607 42.0332 156.299 36.1327 154.547 30.1106C152.311 22.2028 144.636 19.1005 138.231 23.4802L136.116 24.8793V18.553V12.1659H133.457C131.946 12.1659 130.617 12.4092 130.436 12.7134ZM146.268 27.7383C149.41 29.9281 150.377 35.2203 148.202 38.7484C145.301 43.5539 139.258 43.3106 137.022 38.2618C134.545 32.848 137.506 26.765 142.642 26.765C143.911 26.765 145.543 27.1908 146.268 27.7383Z" fill="white"/>
<path d="M268.455 29.4415V46.8388H271.174C273.471 46.8388 273.894 46.6563 273.894 45.6222C273.894 44.1014 274.196 44.1014 276.432 45.683C279.876 48.177 285.617 47.812 289.303 44.8922C294.983 40.3908 294.983 28.2858 289.243 23.7844C285.617 20.9254 280.118 20.8037 276.492 23.4802L274.559 24.9401L274.377 18.7355L274.196 12.4701L271.356 12.2876L268.455 12.1051V29.4415ZM284.892 27.9816C288.518 30.7798 288.759 37.2885 285.436 40.2692C283.381 42.0941 279.755 42.5807 277.459 41.3641C274.8 39.9042 273.531 33.213 275.344 29.8673C277.036 26.765 282.112 25.7309 284.892 27.9816Z" fill="white"/>
<path d="M95.9308 13.5042C95.8099 13.93 95.6891 21.5337 95.8099 30.4148L95.9308 46.5346L105.781 46.7171L115.57 46.8387V44.1014V41.3641H108.923H102.276L102.155 27.1908L101.974 13.0784L99.0731 12.8959C97.1394 12.7742 96.1121 12.9567 95.9308 13.5042Z" fill="white"/>
<path d="M119.196 15.5116V18.2489H122.217H125.239V15.5116V12.7742H122.217H119.196V15.5116Z" fill="white"/>
<path d="M207.422 29.8673V46.8996L210.323 46.7171L213.163 46.5346L213.344 39.3567L213.525 32.2397H221.018H228.572V39.5392V46.8388H231.594H234.615V29.8065V12.7743H231.594H228.572V19.4655V26.1567H221.018H213.465V19.4655V12.7743H210.443H207.422V29.8673Z" fill="white"/>
<path d="M170.742 21.7162C169.956 21.8378 168.566 22.8111 167.599 23.7844C165.364 25.9742 165.122 25.9742 165.122 23.7235C165.122 21.9595 165.001 21.8987 162.403 21.8987H159.683V34.3687V46.8387H162.705H165.726V39.4784C165.726 35.2811 166.028 31.5705 166.391 30.8406C167.539 28.5291 169.533 27.3733 172.252 27.3733H174.851L174.67 24.4535C174.488 21.412 173.944 21.047 170.742 21.7162Z" fill="white"/>
<path d="M185.849 21.8379C183.009 22.5678 179.806 25.2443 178.416 27.9816C176.785 31.2056 176.785 37.471 178.356 40.6342C182.465 48.6637 193.403 49.8803 199.385 43.0065C204.763 36.8627 202.95 26.4609 195.88 22.8111C193.826 21.7162 188.387 21.1687 185.849 21.8379ZM193.403 27.7383C196.424 29.8674 197.391 34.7945 195.638 38.6268C194.49 40.9991 192.375 42.2157 189.475 42.1549C183.25 41.9724 180.41 33.213 185.063 28.4683C186.453 27.13 187.299 26.765 189.414 26.765C190.865 26.765 192.677 27.1909 193.403 27.7383Z" fill="white"/>
<path d="M119.196 34.3687V46.8387H121.915H124.635L124.755 41.1816C124.816 38.1401 124.816 32.848 124.755 29.5023C124.695 26.1567 124.635 23.0544 124.635 22.6286C124.635 22.142 123.668 21.8987 121.915 21.8987H119.196V34.3687Z" fill="white"/>
<path d="M240.658 31.3272C240.658 42.2157 241.383 44.6489 245.13 46.4738C248.755 48.177 254.194 47.3862 256.369 44.7097C257.215 43.6756 257.276 43.7364 257.578 45.0747C257.88 46.3521 258.303 46.5346 260.599 46.5346H263.319V34.3687V22.2028L260.478 22.0203L257.578 21.8378V30.1106V38.4443L255.825 40.2083C253.831 42.1549 250.266 42.6415 248.272 41.1816C246.822 40.1475 246.157 36.0719 246.157 28.1032L246.096 21.8986H243.377H240.658V31.3272Z" fill="white"/>
<path d="M122.036 53.895C121.794 54.1383 121.613 61.8028 121.613 70.9881V87.5945H124.634H127.656L127.535 70.6839L127.354 53.8342L124.937 53.6517C123.547 53.53 122.278 53.6517 122.036 53.895Z" fill="white"/>
<path d="M95.9308 71.1706L95.8704 87.5945H99.0731H102.276V80.9033V74.2121H108.923H115.57V71.7789V69.3457H108.923H102.276V64.7835V60.2213H110.132H117.987V57.4839V54.7466H106.929H95.9308V71.1706Z" fill="white"/>
<path d="M139.137 63.3235C134.847 65.1484 131.886 70.0148 131.886 75.4286C131.886 80.1125 132.853 82.424 135.995 85.283C138.775 87.777 141.252 88.507 146.087 88.0811C157.508 87.1079 161.013 71.1097 151.344 64.4185C149.652 63.2627 148.323 62.9586 144.939 62.8369C142.582 62.7152 139.983 62.9586 139.137 63.3235ZM147.477 68.3724C149.712 69.5281 150.921 71.9613 150.921 75.4286C150.921 78.8351 149.894 80.9641 147.597 82.3023C143.851 84.553 139.802 83.0323 138.231 78.8351C136.841 75.1853 137.445 72.1438 140.044 69.5281C142.28 67.2775 144.697 66.9125 147.477 68.3724Z" fill="white"/>
<path d="M157.87 63.5061C157.87 64.236 160.348 72.3872 163.974 83.7623L165.243 87.5945H168.083H170.983L173.34 79.6867C174.609 75.307 175.818 71.7789 175.999 71.7789C176.18 71.7789 177.389 75.3678 178.658 79.6867L181.015 87.5945H183.915H186.755L190.502 75.8545C192.557 69.4674 194.309 63.871 194.309 63.5669C194.369 63.2019 193.161 62.8978 191.65 62.7761L188.87 62.5936L186.514 71.4139C185.245 76.3411 184.036 80.295 183.855 80.295C183.673 80.295 182.465 76.4019 181.135 71.5964L178.718 62.9586H175.999H173.28L170.923 71.5964C169.594 76.3411 168.445 80.1733 168.325 80.0517C168.204 79.93 167.539 77.801 166.874 75.3678C166.21 72.8738 165.122 69.0415 164.457 66.73L163.249 62.6545H160.59C158.656 62.6545 157.87 62.8978 157.87 63.5061Z" fill="white"/>
</g>
<defs>
<clipPath id="clip0_310_634">
<rect width="76.1404" height="99" fill="white"/>
</clipPath>
<clipPath id="clip1_310_634">
<rect width="198.056" height="75.7327" fill="white" transform="translate(95.6287 12.318)"/>
</clipPath>
</defs>
</svg>
