<svg width="77" height="98" viewBox="0 0 77 98" fill="none" xmlns="http://www.w3.org/2000/svg">
<path d="M50.4467 2.03476C43.9831 4.41573 33.3779 8.21949 27.8556 10.1359C21.0155 12.5169 16.7797 14.1719 15.5874 14.9269C14.2382 15.7399 12.9831 17.1917 12.6694 18.266C12.5439 18.7887 12.0732 40.624 12.1674 43.1501C12.1674 43.3244 11.634 43.6437 11.0064 43.818C8.55905 44.5439 6.14306 45.9667 4.3546 47.7669C2.25237 49.8285 1.12282 51.8029 0.338404 54.6775C-0.979409 59.6718 1.65622 65.6532 6.42545 68.4407C7.68051 69.1376 9.78274 69.9216 11.7908 70.4152C12.0732 70.5023 12.1674 72.7091 12.1674 80.2004C12.1674 90.6825 12.2929 91.5536 13.8931 93.7894C15.6188 96.1994 19.9487 97.8254 23.4001 97.3609C25.0003 97.1576 33.974 94.8637 44.3283 92.0182C47.968 91.031 51.3566 90.1018 51.8586 89.9856C53.6785 89.5501 65.9781 86.1819 67.2959 85.7464C69.0844 85.1656 71.2807 82.8718 71.7514 81.1586C71.971 80.3456 72.0965 76.5999 72.0965 70.9378V61.9947L71.0924 62.8948C70.5277 63.3594 69.5236 64.1143 68.8961 64.5789L67.7038 65.3629V72.622C67.7038 80.5489 67.5783 81.1877 65.9153 81.7974C65.0682 82.1168 60.5813 83.3654 50.6977 86.0367C47.968 86.7626 45.4265 87.3724 45.0186 87.3724C44.2655 87.3724 41.6613 85.8335 41.6613 85.3979C41.6613 85.2818 42.8536 84.9914 44.3283 84.7301C50.9801 83.5106 54.6825 80.4617 56.6906 74.4512C57.4437 72.2735 57.9457 67.8019 57.475 67.5406C57.3182 67.4535 56.3141 67.7729 55.2159 68.2375C54.1491 68.7021 51.4194 69.486 49.1603 69.9506C44.5793 70.9088 42.5712 71.6347 41.222 72.7962C40.2493 73.6382 39.1198 75.7579 38.5236 77.8194C38.1157 79.2132 37.8333 79.0099 37.4254 77.0645C36.7665 73.5802 37.5196 68.3246 39.1198 65.2467C40.8141 62.0237 40.5631 62.1108 43.9204 63.6207C48.8151 65.8275 50.886 66.292 55.6238 66.3211C59.2949 66.3211 59.9538 66.234 62.2129 65.5081C66.7939 63.9982 70.2453 61.5591 72.6927 58.0457C78.2149 50.1479 76.9912 39.6948 69.7433 32.8713C67.6724 30.9259 66.6997 30.2871 64.5661 29.3289C57.3809 26.1639 50.4153 26.7737 43.7008 31.1872C41.5358 32.61 39.1198 34.9038 32.2797 41.9887C29.6441 44.7471 27.4163 47.012 27.3536 47.012C27.2908 47.012 26.5378 46.6635 25.6593 46.1989L24.0904 45.415V34.9038V24.3927L25.2827 24.1023C25.9103 23.9281 28.0125 23.4926 29.8951 23.0861C31.8091 22.6796 38.9315 21.0535 45.7402 19.4565C52.5489 17.8886 58.9497 16.4368 59.9538 16.2335C62.4953 15.7689 63.9386 16.0593 65.6016 17.424C67.39 18.8468 67.7038 19.9792 67.7038 24.8863V28.661L68.802 29.416C69.3981 29.8515 70.4022 30.6645 70.9983 31.2453L72.0965 32.2906V26.3381C72.0965 21.1697 72.0024 20.0953 71.469 18.4693C70.6532 16.0593 68.7078 13.9687 66.1977 12.8363C64.6289 12.1394 64.0641 12.0232 61.7423 12.0523C59.389 12.0813 56.8789 12.604 40.8769 16.3787C21.3607 20.9664 18.9133 21.3729 17.9406 20.1824C16.9366 18.9048 17.721 18.0918 20.9842 16.9594C23.4315 16.1174 28.2635 14.3752 33.974 12.3136C35.888 11.6458 39.9042 10.194 42.9163 9.11961C45.9285 8.01623 49.5995 6.7096 51.0429 6.15791C52.5176 5.63526 53.804 5.19971 53.9295 5.19971C54.055 5.19971 54.2433 6.50635 54.3688 8.13238L54.5884 11.065L55.5925 10.8618C56.1259 10.7747 57.0358 10.6005 57.6006 10.5134L58.6046 10.3391V5.7514V1.16367L57.7888 0.582946C57.3182 0.234511 56.722 -0.0268157 56.4396 0.00222055C56.1572 0.00222055 53.4588 0.931381 50.4467 2.03476ZM18.2858 24.7702L19.5408 25.1767V34.4392V43.6728L18.2858 43.5566C17.5955 43.5276 16.9366 43.4115 16.8111 43.3244C16.6542 43.2663 16.5601 38.9689 16.5601 33.7714C16.5601 28.603 16.6542 24.3637 16.8111 24.3637C16.9366 24.3637 17.5955 24.5669 18.2858 24.7702ZM60.5499 32.2035C67.2959 34.1198 72.3161 41.408 71.6886 48.3476C70.9042 56.652 64.2837 62.4012 55.4356 62.4012C52.8627 62.4012 50.1643 61.7914 46.9325 60.4558C43.7949 59.1782 44.4538 58.9168 51.7018 58.5974C57.9143 58.3651 59.7969 57.9586 62.2757 56.3907C64.0955 55.2583 65.0054 54.271 66.3232 51.9481C67.1704 50.4673 67.2331 50.1188 67.2331 47.1571C67.2331 44.2535 67.139 43.7889 66.3232 42.1339C65.1623 39.811 62.4953 37.459 59.9538 36.5299C58.5418 36.0072 57.5064 35.862 55.3101 35.833C52.7372 35.833 52.2665 35.9201 50.4467 36.7621C47.8111 37.9526 44.7676 40.3627 40.9082 44.2825C39.1825 46.0247 36.139 49.0735 34.1309 51.077C32.1228 53.0805 28.5145 56.652 26.0985 59.062C23.7139 61.443 21.2352 63.853 20.639 64.3466C19.4153 65.421 16.9366 66.3792 15.305 66.4663C13.2028 66.5824 11.8536 66.4663 11.8536 66.1759C11.8536 66.0017 12.0418 65.8855 12.2615 65.8855C13.0773 65.8855 16.4032 63.6497 19.0388 61.3849C20.4508 60.1073 24.1846 56.4778 27.3222 53.2548C30.4285 50.0608 33.5661 46.8668 34.2564 46.1409C34.9781 45.415 37.5196 42.8307 39.9042 40.3917C44.3597 35.833 46.8384 33.9456 49.9133 32.639C53.051 31.3033 56.8161 31.1581 60.5499 32.2035ZM57.5064 40.0723C59.2949 40.4788 61.4599 42.25 62.3698 43.9631C62.9346 45.0665 63.0287 45.6763 62.9346 47.4185C62.8091 50.0898 61.6795 51.9481 59.4204 53.2257C57.9457 54.0678 57.7261 54.1258 52.6744 54.3291C47.0894 54.5904 44.5479 55.026 42.3516 56.1584C41.5671 56.5649 40.8455 56.8843 40.72 56.8843C40.2807 56.8843 37.2686 54.5614 37.2686 54.242C37.2686 53.8936 44.8303 46.2861 47.7169 43.7018C51.7331 40.1594 54.1178 39.2883 57.5064 40.0723ZM18.0661 47.5927C19.6036 47.9411 21.9568 48.8993 23.2433 49.7123L24.0904 50.264L23.1178 51.3964C20.8586 54.0387 14.2382 60.0783 12.2615 61.2978C9.84549 62.8077 7.555 63.6207 6.83334 63.2723C6.55096 63.1271 5.98618 62.4012 5.57828 61.6172C4.888 60.3977 4.79387 59.846 4.79387 57.3198C4.79387 54.6485 4.85662 54.3001 5.70379 52.9934C8.4963 48.609 13.1714 46.5474 18.0661 47.5927ZM35.2605 58.3651C35.9508 58.8588 36.7038 59.3814 36.9548 59.4976C37.3627 59.7298 37.3627 59.846 36.8607 60.5719C35.4487 62.5754 33.7544 66.3501 33.3465 68.3827C32.3425 73.1156 32.9386 79.3584 34.6957 83.1041C35.5742 84.8753 37.7078 87.8079 38.5864 88.3596C39.5591 88.9984 39.1825 89.2307 35.5429 90.1308C33.8171 90.5664 31.7777 91.089 30.9933 91.3213C30.2088 91.5536 28.3263 92.0472 26.8202 92.4247L24.0904 93.1216V79.9391C24.0904 72.0703 24.2159 66.7566 24.3728 66.7566C24.5297 66.7566 26.6947 64.666 29.142 62.1108C31.6208 59.5556 33.723 57.465 33.8485 57.465C33.9427 57.465 34.6016 57.8715 35.2605 58.3651ZM19.6977 81.2748C19.6977 88.1854 19.5722 92.8893 19.4153 92.8893C18.8819 92.8893 17.2817 91.4665 16.9052 90.6535C16.6542 90.0728 16.5601 86.9368 16.6228 80.1423L16.7169 70.4442L17.972 70.0668C18.6623 69.8925 19.3212 69.7183 19.4781 69.6893C19.6036 69.6603 19.6977 74.8868 19.6977 81.2748ZM46.4305 77.0645C44.0773 79.3874 42.5084 81.7684 41.5358 84.5849C41.3161 85.2237 40.8455 84.9333 40.0297 83.6557L39.4649 82.8137L41.0024 80.7811C42.6653 78.6034 44.8931 76.5999 46.6815 75.7288C48.47 74.8577 48.4386 75.061 46.4305 77.0645Z" fill="#63A26C"/>
</svg>
