<svg width="300" height="94" viewBox="0 0 300 94" fill="none" xmlns="http://www.w3.org/2000/svg">
<g clip-path="url(#clip0_310_654)">
<path d="M48.8865 3.37903C42.6315 5.63975 32.3683 9.2514 27.0242 11.071C20.4047 13.3317 16.3056 14.9032 15.1517 15.62C13.846 16.392 12.6315 17.7705 12.3278 18.7905C12.2064 19.2868 11.7509 40.0193 11.842 42.4179C11.842 42.5833 11.3258 42.8866 10.7185 43.052C8.35009 43.7412 6.01204 45.0921 4.28127 46.8015C2.24685 48.7589 1.15374 50.6337 0.394627 53.3631C-0.880677 58.1051 1.66993 63.7845 6.28532 66.4312C7.49989 67.0928 9.5343 67.8372 11.4776 68.3059C11.7509 68.3886 11.842 70.4839 11.842 77.5969C11.842 87.5496 11.9635 88.3767 13.512 90.4996C15.1821 92.7879 19.3724 94.3318 22.7124 93.8907C24.261 93.6977 32.9452 91.5197 42.9655 88.8178C46.4877 87.8805 49.7671 86.9982 50.2529 86.888C52.0141 86.4744 63.9169 83.2763 65.1922 82.8628C66.923 82.3114 69.0485 80.1334 69.5039 78.5067C69.7165 77.7348 69.8379 74.1783 69.8379 68.8022V60.3107L68.8663 61.1653C68.3197 61.6065 67.3481 62.3233 66.7408 62.7644L65.5869 63.5088V70.4012C65.5869 77.9278 65.4655 78.5343 63.8562 79.1133C63.0363 79.4165 58.6942 80.602 49.1294 83.1385C46.4877 83.8277 44.0282 84.4067 43.6335 84.4067C42.9048 84.4067 40.3845 82.9455 40.3845 82.5319C40.3845 82.4217 41.5384 82.146 42.9655 81.8978C49.4027 80.7399 52.9857 77.8451 54.929 72.1381C55.6578 70.0704 56.1436 65.8246 55.6882 65.5765C55.5363 65.4938 54.5647 65.7971 53.5019 66.2382C52.4695 66.6793 49.8278 67.4237 47.6416 67.8648C43.2084 68.7746 41.2651 69.4638 39.9594 70.5666C39.0181 71.3662 37.925 73.3788 37.3481 75.3362C36.9533 76.6596 36.6801 76.4666 36.2853 74.6194C35.6477 71.311 36.3764 66.3209 37.925 63.3985C39.5647 60.3382 39.3218 60.4209 42.5707 61.8546C47.3076 63.9499 49.3116 64.391 53.8967 64.4186C57.4493 64.4186 58.0869 64.3359 60.2732 63.6466C64.7064 62.213 68.0464 59.8971 70.4149 56.5612C75.759 49.0622 74.5748 39.1371 67.5606 32.6582C65.5566 30.811 64.6153 30.2044 62.5505 29.2946C55.5971 26.2895 48.8562 26.8685 42.3582 31.0591C40.263 32.41 37.925 34.588 31.3056 41.3151C28.755 43.9342 26.5991 46.0847 26.5384 46.0847C26.4776 46.0847 25.7489 45.7538 24.8987 45.3127L23.3805 44.5683V34.588V24.6078L24.5343 24.3321C25.1416 24.1667 27.176 23.7531 28.9979 23.3671C30.8501 22.9812 37.7428 21.4372 44.3319 19.9209C50.9209 18.4321 57.1153 17.0537 58.0869 16.8607C60.5465 16.4195 61.9432 16.6952 63.5525 17.991C65.2833 19.3419 65.5869 20.4172 65.5869 25.0765V28.6605L66.6497 29.3774C67.2266 29.7909 68.1983 30.5629 68.7752 31.1142L69.8379 32.1068V26.455C69.8379 21.5475 69.7469 20.5274 69.2307 18.9835C68.4412 16.6952 66.5586 14.7102 64.1294 13.635C62.6112 12.9733 62.0647 12.863 59.8177 12.8906C57.5404 12.9182 55.1112 13.4144 39.6254 16.9985C20.7388 21.3545 18.3703 21.7405 17.429 20.6102C16.4574 19.3971 17.2165 18.6251 20.3744 17.5499C22.7428 16.7504 27.4189 15.0962 32.9452 13.1387C34.7975 12.5046 38.6841 11.1261 41.5991 10.1061C44.5141 9.05841 48.0667 7.81777 49.4635 7.29394C50.8906 6.79768 52.1355 6.38414 52.257 6.38414C52.3784 6.38414 52.5606 7.62478 52.6821 9.16869L52.8946 11.9532L53.8663 11.7602C54.3825 11.6775 55.2631 11.5121 55.8096 11.4294L56.7813 11.264V6.90796V2.55194L55.9918 2.00054C55.5363 1.6697 54.9594 1.42157 54.6861 1.44914C54.4128 1.44914 51.8015 2.33138 48.8865 3.37903ZM17.763 24.9662L18.9776 25.3522V34.1469V42.9141L17.763 42.8038C17.095 42.7763 16.4574 42.666 16.3359 42.5833C16.1841 42.5281 16.093 38.4478 16.093 33.5128C16.093 28.6054 16.1841 24.5802 16.3359 24.5802C16.4574 24.5802 17.095 24.7732 17.763 24.9662ZM58.6639 32.0241C65.1922 33.8437 70.0505 40.7637 69.4432 47.3529C68.6841 55.2378 62.2772 60.6966 53.7145 60.6966C51.2246 60.6966 48.6133 60.1177 45.4857 58.8495C42.4493 57.6364 43.0869 57.3883 50.1011 57.085C56.1133 56.8644 57.9351 56.4785 60.3339 54.9897C62.095 53.9145 62.9756 52.9771 64.2509 50.7715C65.0707 49.3655 65.1315 49.0346 65.1315 46.2225C65.1315 43.4655 65.0404 43.0244 64.2509 41.4529C63.1274 39.2473 60.5465 37.0142 58.0869 36.132C56.7205 35.6357 55.7185 35.4978 53.593 35.4703C51.1031 35.4703 50.6477 35.553 48.8865 36.3525C46.3359 37.4829 43.3906 39.7712 39.6558 43.4931C37.9857 45.1473 35.0404 48.0421 33.0971 49.9444C31.1537 51.8467 27.6618 55.2378 25.3238 57.5261C23.0161 59.7868 20.6173 62.0751 20.0404 62.5438C18.8562 63.5639 16.4574 64.4737 14.8784 64.5564C12.844 64.6667 11.5384 64.5564 11.5384 64.2807C11.5384 64.1153 11.7205 64.005 11.9331 64.005C12.7226 64.005 15.9412 61.8821 18.4918 59.7317C19.8582 58.5186 23.4716 55.0724 26.508 52.0122C29.5141 48.9795 32.5505 45.9468 33.2185 45.2576C33.9169 44.5683 36.3764 42.1146 38.6841 39.7987C42.9958 35.4703 45.3946 33.6782 48.3703 32.4376C51.4068 31.1694 55.0505 31.0315 58.6639 32.0241ZM55.7185 39.4955C57.4493 39.8814 59.5444 41.5632 60.425 43.1898C60.9716 44.2375 61.0626 44.8164 60.9716 46.4706C60.8501 49.0071 59.757 50.7715 57.5707 51.9846C56.1436 52.7841 55.9311 52.8393 51.0424 53.0322C45.6375 53.2804 43.178 53.6939 41.0525 54.7691C40.2934 55.1551 39.595 55.4584 39.4736 55.4584C39.0485 55.4584 36.1335 53.2528 36.1335 52.9495C36.1335 52.6187 43.4513 45.3954 46.2448 42.9417C50.1315 39.5782 52.4392 38.7511 55.7185 39.4955ZM17.5505 46.636C19.0384 46.9669 21.3157 47.8767 22.5606 48.6486L23.3805 49.1725L22.4392 50.2477C20.2529 52.7565 13.846 58.4911 11.9331 59.649C9.59503 61.0826 7.37843 61.8546 6.68005 61.5237C6.40677 61.3859 5.86021 60.6966 5.46548 59.9523C4.79746 58.7943 4.70637 58.2705 4.70637 55.8719C4.70637 53.3355 4.7671 53.0047 5.58693 51.764C8.28936 47.601 12.8137 45.6435 17.5505 46.636ZM34.1902 56.8644C34.8582 57.3331 35.5869 57.8294 35.8299 57.9397C36.2246 58.1602 36.2246 58.2705 35.7388 58.9598C34.3724 60.8621 32.7327 64.4461 32.3379 66.376C31.3663 70.8699 31.9432 76.7974 33.6436 80.3539C34.4938 82.0357 36.5586 84.8202 37.4088 85.344C38.3501 85.9506 37.9857 86.1711 34.4635 87.0258C32.7934 87.4394 30.8197 87.9356 30.0606 88.1562C29.3015 88.3767 27.4796 88.8454 26.0222 89.2038L23.3805 89.8655V77.3488C23.3805 69.8774 23.5019 64.8321 23.6537 64.8321C23.8056 64.8321 25.9007 62.8471 28.2691 60.4209C30.6679 57.9948 32.7023 56.0098 32.8238 56.0098C32.9149 56.0098 33.5525 56.3958 34.1902 56.8644ZM19.1294 78.617C19.1294 85.1786 19.008 89.6449 18.8562 89.6449C18.34 89.6449 16.7914 88.294 16.427 87.5221C16.1841 86.9707 16.093 83.9931 16.1537 77.5418L16.2448 68.3335L17.4594 67.9751C18.1274 67.8097 18.7651 67.6442 18.9169 67.6167C19.0384 67.5891 19.1294 72.5517 19.1294 78.617ZM44.9999 74.6194C42.7226 76.825 41.2043 79.0857 40.263 81.76C40.0505 82.3665 39.595 82.0908 38.8056 80.8777L38.259 80.0782L39.7469 78.1483C41.3562 76.0806 43.512 74.1783 45.2428 73.3512C46.9736 72.5241 46.9432 72.7171 44.9999 74.6194Z" fill="#63A26C"/>
</g>
<g clip-path="url(#clip1_310_654)">
<path d="M126.228 12.0713C125.994 12.3601 125.994 19.6952 126.228 28.4166L126.579 44.1843L129.152 44.3576C131.608 44.5309 131.725 44.4731 131.725 43.0292V41.5275L133.889 43.1447C135.702 44.5309 136.579 44.7619 139.62 44.7619C142.661 44.7619 143.597 44.4731 145.409 43.1447C149.62 39.9103 151.257 34.3078 149.562 28.5899C147.398 21.0814 139.971 18.1358 133.772 22.2943L131.725 23.6227V17.616V11.5515H129.152C127.69 11.5515 126.404 11.7825 126.228 12.0713ZM141.55 26.3373C144.591 28.4166 145.526 33.4415 143.421 36.7914C140.614 41.3542 134.766 41.1232 132.602 36.3293C130.205 31.1889 133.07 25.4132 138.041 25.4132C139.269 25.4132 140.848 25.8175 141.55 26.3373Z" fill="#4A4A4A"/>
<path d="M259.795 27.9545V44.4731H262.427C264.649 44.4731 265.059 44.2999 265.059 43.318C265.059 41.8741 265.351 41.8741 267.515 43.3757C270.848 45.7438 276.404 45.3972 279.971 42.6249C285.468 38.3509 285.468 26.8572 279.912 22.5831C276.404 19.8685 271.082 19.753 267.573 22.2943L265.702 23.6805L265.526 17.7893L265.351 11.8403L262.602 11.667L259.795 11.4937V27.9545ZM275.702 26.5684C279.211 29.2252 279.445 35.4052 276.228 38.2353C274.24 39.9681 270.731 40.4301 268.509 39.275C265.936 37.8888 264.708 31.5355 266.462 28.3588C268.1 25.4132 273.012 24.4313 275.702 26.5684Z" fill="#4A4A4A"/>
<path d="M92.8363 12.8221C92.7193 13.2264 92.6024 20.4461 92.7193 28.8787L92.8363 44.1844L102.368 44.3576L111.842 44.4731V41.8741V39.275H105.409H98.9767L98.8597 25.8175L98.6843 12.4178L95.8772 12.2446C94.0059 12.1291 93.0117 12.3023 92.8363 12.8221Z" fill="#4A4A4A"/>
<path d="M115.351 14.7281V17.3272H118.275H121.199V14.7281V12.1291H118.275H115.351V14.7281Z" fill="#4A4A4A"/>
<path d="M200.731 28.3588V44.5309L203.538 44.3576L206.287 44.1843L206.462 37.369L206.637 30.6114H213.889H221.199V37.5423V44.4731H224.123H227.047V28.3011V12.129H224.123H221.199V18.4823V24.8356H213.889H206.579V18.4823V12.129H203.655H200.731V28.3588Z" fill="#4A4A4A"/>
<path d="M165.234 20.6194C164.474 20.7349 163.129 21.659 162.193 22.5831C160.029 24.6624 159.795 24.6624 159.795 22.5254C159.795 20.8504 159.678 20.7927 157.164 20.7927H154.532V32.6329V44.4731H157.456H160.38V37.4845C160.38 33.4993 160.673 29.9761 161.023 29.283C162.135 27.0882 164.064 25.9908 166.696 25.9908H169.211L169.035 23.2185C168.86 20.3306 168.333 19.984 165.234 20.6194Z" fill="#4A4A4A"/>
<path d="M179.854 20.7349C177.105 21.4279 174.006 23.9693 172.661 26.5683C171.082 29.6295 171.082 35.5785 172.602 38.5819C176.579 46.2058 187.164 47.361 192.953 40.8344C198.158 35.0009 196.404 25.1244 189.561 21.659C187.573 20.6193 182.31 20.0995 179.854 20.7349ZM187.164 26.3373C190.088 28.3588 191.023 33.0372 189.328 36.6759C188.216 38.9284 186.17 40.0835 183.363 40.0258C177.339 39.8525 174.591 31.5355 179.094 27.0304C180.439 25.7597 181.257 25.4132 183.304 25.4132C184.708 25.4132 186.462 25.8175 187.164 26.3373Z" fill="#4A4A4A"/>
<path d="M115.351 32.6329V44.4731H117.982H120.614L120.731 39.1017C120.789 36.2139 120.789 31.189 120.731 28.0123C120.672 24.8357 120.614 21.89 120.614 21.4857C120.614 21.0237 119.678 20.7927 117.982 20.7927H115.351V32.6329Z" fill="#4A4A4A"/>
<path d="M232.895 29.745C232.895 40.0835 233.597 42.3938 237.222 44.1265C240.731 45.7437 245.994 44.9929 248.099 42.4516C248.918 41.4697 248.977 41.5275 249.269 42.7981C249.561 44.011 249.971 44.1843 252.193 44.1843H254.825V32.6328V21.0814L252.076 20.9081L249.269 20.7348V28.5898V36.5026L247.573 38.1775C245.643 40.0258 242.193 40.4878 240.263 39.1017C238.86 38.1198 238.216 34.25 238.216 26.6838L238.158 20.7926H235.526H232.895V29.745Z" fill="#4A4A4A"/>
<path d="M118.1 51.173C117.866 51.404 117.69 58.6814 117.69 67.4028V83.1705H120.614H123.538L123.421 67.114L123.246 51.1152L120.907 50.942C119.562 50.8264 118.333 50.942 118.1 51.173Z" fill="#4A4A4A"/>
<path d="M92.8363 67.5761L92.7778 83.1705H95.8772H98.9767V76.8172V70.4639H105.409H111.842V68.1536V65.8433H105.409H98.9767V61.5115V57.1797H106.579H114.181V54.5807V51.9816H103.48H92.8363V67.5761Z" fill="#4A4A4A"/>
<path d="M134.649 60.1253C130.497 61.8581 127.632 66.4786 127.632 71.619C127.632 76.0664 128.567 78.2611 131.608 80.9757C134.298 83.3438 136.696 84.0369 141.374 83.6326C152.427 82.7084 155.819 67.5183 146.462 61.165C144.825 60.0676 143.538 59.7788 140.263 59.6633C137.982 59.5478 135.468 59.7788 134.649 60.1253ZM142.719 64.9192C144.883 66.0166 146.053 68.3269 146.053 71.619C146.053 74.8535 145.058 76.875 142.836 78.1456C139.211 80.2826 135.292 78.8387 133.772 74.8535C132.427 71.388 133.012 68.5001 135.526 66.0166C137.69 63.8796 140.029 63.533 142.719 64.9192Z" fill="#4A4A4A"/>
<path d="M152.778 60.2986C152.778 60.9917 155.175 68.7312 158.684 79.5318L159.912 83.1705H162.661H165.468L167.749 75.6621C168.977 71.5036 170.146 68.1536 170.322 68.1536C170.497 68.1536 171.667 71.5613 172.895 75.6621L175.175 83.1705H177.983H180.731L184.357 72.0234C186.345 65.9589 188.041 60.6452 188.041 60.3564C188.099 60.0099 186.93 59.7211 185.468 59.6056L182.778 59.4323L180.497 67.8071C179.269 72.4854 178.099 76.2397 177.924 76.2397C177.749 76.2397 176.579 72.5432 175.292 67.9804L172.953 59.7788H170.322H167.69L165.409 67.9804C164.123 72.4854 163.012 76.1241 162.895 76.0086C162.778 75.8931 162.135 73.8716 161.491 71.5613C160.848 69.1933 159.795 65.5546 159.152 63.3598L157.983 59.49H155.409C153.538 59.49 152.778 59.7211 152.778 60.2986Z" fill="#4A4A4A"/>
</g>
<defs>
<clipPath id="clip0_310_654">
<rect width="73.6842" height="94" fill="white"/>
</clipPath>
<clipPath id="clip1_310_654">
<rect width="191.667" height="71.9078" fill="white" transform="translate(92.5439 11.6959)"/>
</clipPath>
</defs>
</svg>
